<?xml version="1.0" encoding="utf-8"?>
<!-- Generator: Adobe Illustrator 26.0.1, SVG Export Plug-In . SVG Version: 6.00 Build 0)  -->
<svg version="1.1" id="Layer_1" xmlns="http://www.w3.org/2000/svg" xmlns:xlink="http://www.w3.org/1999/xlink" x="0px" y="0px"
	 viewBox="0 0 32 32" style="enable-background:new 0 0 32 32;" xml:space="preserve">
<style type="text/css">
	.st0{fill:url(#SVGID_1_);}
	.st1{fill:url(#SVGID_00000095323601471131054020000009067729386718220680_);}
	.st2{fill:url(#SVGID_00000023971528610046654430000003157448609692510604_);}
</style>
<linearGradient id="SVGID_1_" gradientUnits="userSpaceOnUse" x1="-914.0156" y1="637.0156" x2="-913.0156" y2="636.0156" gradientTransform="matrix(32 0 0 -32 29248.5 20384.5)">
	<stop  offset="0" style="stop-color:#41D1FF"/>
	<stop  offset="1" style="stop-color:#BD34FE"/>
</linearGradient>
<path class="st0" d="M6,0h20c3.31,0,6,2.69,6,6v20c0,3.31-2.69,6-6,6H6c-3.31,0-6-2.69-6-6V6C0,2.69,2.69,0,6,0z"/>
<g>
	
		<linearGradient id="SVGID_00000125597493492874819630000012986481611109391245_" gradientUnits="userSpaceOnUse" x1="4.4214" y1="16.1523" x2="15.0063" y2="16.1523">
		<stop  offset="1.341853e-07" style="stop-color:#FFEA83"/>
		<stop  offset="1" style="stop-color:#FFA800"/>
	</linearGradient>
	<path style="fill:url(#SVGID_00000125597493492874819630000012986481611109391245_);" d="M15.01,11.94h-3.8v10.87H8.2V11.94H4.42
		V9.5h10.58V11.94z"/>
	
		<linearGradient id="SVGID_00000039827100206941573200000006015068408436143540_" gradientUnits="userSpaceOnUse" x1="16.7979" y1="16.1523" x2="27.8662" y2="16.1523">
		<stop  offset="1.341853e-07" style="stop-color:#FFEA83"/>
		<stop  offset="1" style="stop-color:#FFA800"/>
	</linearGradient>
	<path style="fill:url(#SVGID_00000039827100206941573200000006015068408436143540_);" d="M27.87,22.81h-3.79l-3.88-5.78
		c-0.07-0.11-0.19-0.36-0.35-0.73H19.8v6.52h-3V9.5h3v6.29h0.05c0.07-0.17,0.2-0.42,0.37-0.74l3.68-5.55h3.58l-4.64,6.35
		L27.87,22.81z"/>
</g>
</svg>
